<?xml version="1.0" encoding="UTF-8" standalone="no"?>
<svg
   xmlns:dc="http://purl.org/dc/elements/1.1/"
   xmlns:cc="http://creativecommons.org/ns#"
   xmlns:rdf="http://www.w3.org/1999/02/22-rdf-syntax-ns#"
   xmlns:svg="http://www.w3.org/2000/svg"
   xmlns="http://www.w3.org/2000/svg"
   xmlns:sodipodi="http://sodipodi.sourceforge.net/DTD/sodipodi-0.dtd"
   xmlns:inkscape="http://www.inkscape.org/namespaces/inkscape"
   width="1032"
   height="801"
   version="1.1"
   id="svg4"
   sodipodi:docname="arrow_bg.svg"
   inkscape:version="0.92.0 r15299">
  <metadata
     id="metadata10">
    <rdf:RDF>
      <cc:Work
         rdf:about="">
        <dc:format>image/svg+xml</dc:format>
        <dc:type
           rdf:resource="http://purl.org/dc/dcmitype/StillImage" />
        <dc:title></dc:title>
      </cc:Work>
    </rdf:RDF>
  </metadata>
  <defs
     id="defs8" />
  <sodipodi:namedview
     pagecolor="#ffffff"
     bordercolor="#666666"
     borderopacity="1"
     objecttolerance="10"
     gridtolerance="10"
     guidetolerance="10"
     inkscape:pageopacity="0"
     inkscape:pageshadow="2"
     inkscape:window-width="640"
     inkscape:window-height="480"
     id="namedview6"
     showgrid="false"
     inkscape:zoom="0.27810078"
     inkscape:cx="453.07317"
     inkscape:cy="400.5"
     inkscape:window-x="0"
     inkscape:window-y="0"
     inkscape:window-maximized="0"
     inkscape:current-layer="svg4" />
  <path
     style="fill:#e1e1e1; stroke:none;"
     d="M677 184C677 184 898 13 898 13C898 13 922 241 922 241C922 241 825 165 825 165C825 165 677 184 677 184M794 448C794 448 931 342 931 342C931 342 946 483 946 483C946 483 886 436 886 436C886 436 794 448 794 448M451 372C451 372 588 266 588 266C588 266 603 407 603 407C603 407 543 360 543 360C543 360 451 372 451 372M255 192C255 192 472 25 472 25C472 25 496 248 496 248C496 248 400 173 400 173C400 173 255 192 255 192M90 415C90 415 231 306 231 306C231 306 247 451 247 451C247 451 185 402 185 402C185 402 90 415 90 415M218 674C218 674 478 475 478 475C478 475 506 740 506 740C506 740 391 651 391 651C391 651 218 674 218 674M572 663C572 663 689 574 689 574C689 574 702 693 702 693C702 693 650 653 650 653C650 653 572 663 572 663M13 648C13 648 130 559 130 559C130 559 143 678 143 678C143 678 91 638 91 638C91 638 13 648 13 648M22 198C22 198 139 109 139 109C139 109 152 228 152 228C152 228 100 188 100 188C100 188 22 198 22 198M787 735C787 735 996 576 996 576C996 576 1019 788 1019 788C1019 788 927 717 927 717C927 717 787 735 787 735z"
     id="path2" />
</svg>
